<svg width="36" height="44" viewBox="0 0 36 44" fill="none" xmlns="http://www.w3.org/2000/svg">
<path d="M18.0842 43.7381C17.0618 43.7381 16.0393 43.4502 15.1454 42.8724L10.0832 39.6055C3.76902 35.5303 0 28.6119 0 21.0957V9.81691C0 7.52597 1.45075 5.47379 3.60955 4.71014L15.8908 0.361547C17.2504 -0.120516 18.7485 -0.120516 20.11 0.361547L32.3912 4.71105C34.5491 5.4747 35.9998 7.52689 35.9998 9.81782V21.1677C35.9998 28.6329 32.2682 35.5285 26.0187 39.611L21.0486 42.8569C20.1501 43.4447 19.1176 43.7381 18.0851 43.7381H18.0842Z" fill="#E05193"/>
<path d="M16.6838 26.9316C16.2172 26.9316 15.7516 26.7539 15.3953 26.3976L9.82648 20.8288C9.11477 20.1171 9.11477 18.9634 9.82648 18.2517C10.5382 17.54 11.6919 17.54 12.4036 18.2517L16.6838 22.532L25.4193 13.7965C26.131 13.0848 27.2846 13.0848 27.9963 13.7965C28.7081 14.5082 28.7081 15.6619 27.9963 16.3736L17.9723 26.3976C17.616 26.7539 17.1504 26.9316 16.6838 26.9316Z" fill="#FCEDF4"/>
</svg>
