<svg width="36" height="34" viewBox="0 0 36 34" fill="none" xmlns="http://www.w3.org/2000/svg">
<path d="M5.09161 27.4493V32.4802C5.09161 33.0577 5.42604 33.5897 5.94275 33.8481C6.15556 33.9393 6.38358 34.0001 6.61151 34.0001C6.94593 34.0001 7.28027 33.8784 7.55384 33.6657L15.4573 27.4645H30.2611C33.3769 27.4645 35.8999 24.9567 35.8999 21.8713V5.59321C35.8999 2.50787 33.3769 0 30.2763 0H5.62363C2.52299 1.5199e-07 0 2.50787 0 5.59321V21.8713C0 24.7895 2.2342 27.1757 5.09161 27.4493ZM17.9804 22.4489C17.1445 22.4489 16.4453 21.7649 16.4453 20.929C16.4453 20.0931 17.1293 19.4091 17.9652 19.4091H17.9804C18.8163 19.4091 19.5003 20.0931 19.5003 20.929C19.5003 21.7649 18.8163 22.4489 17.9804 22.4489ZM14.9254 6.11001C16.0957 5.1829 17.6004 4.84847 19.0747 5.1829C20.8529 5.59321 22.2665 7.0067 22.6768 8.78504C23.1328 10.7912 22.3273 12.8279 20.625 13.9526C19.9106 14.4238 19.4699 15.3054 19.4699 16.2477C19.4699 17.0988 18.7859 17.7676 17.95 17.7676C17.114 17.7676 16.4301 17.0988 16.4301 16.2477C16.4301 14.2718 17.3724 12.4632 18.9379 11.4296C19.4546 11.08 19.9258 10.3961 19.713 9.46892C19.5611 8.83059 19.0291 8.29866 18.3907 8.14662C17.6156 7.96424 17.0836 8.28345 16.8253 8.49626C16.3845 8.8458 16.1413 9.36261 16.1413 9.90975C16.1413 10.7457 15.4573 11.4296 14.6214 11.4296C13.7703 11.4296 13.1015 10.7457 13.1015 9.90975C13.1015 8.42019 13.7703 7.03713 14.9254 6.11001Z" fill="#DF7D4F"/>
</svg>
