<svg width="48" height="48" viewBox="0 0 48 48" fill="none" xmlns="http://www.w3.org/2000/svg">
<path d="M41.4302 17.3401V26.4301C41.4302 31.1251 37.5902 34.9501 32.8651 34.9501H19.2902L18.1802 35.8201C18.9152 37.3051 20.4602 38.3251 22.2152 38.3251H33.0452L38.8052 42.8401C39.0752 43.0501 39.4052 43.155 39.7352 43.155C39.9602 43.155 40.1852 43.1101 40.3802 43.0051C40.9052 42.7501 41.2352 42.225 41.2352 41.655V38.2651C43.3651 37.905 45.0002 36.045 45.0002 33.8101V21.78C45.0002 19.6051 43.4702 17.7901 41.4302 17.3401Z" fill="#DF7D4F"/>
<path d="M8.02496 31.935V36.9C8.02496 37.47 8.35501 37.9949 8.86496 38.25C9.07498 38.34 9.30002 38.4 9.52496 38.4C9.85501 38.4 10.185 38.2799 10.455 38.07L18.255 31.95H32.865C35.94 31.95 38.43 29.4749 38.43 26.43V10.365C38.43 7.32001 35.94 4.84497 32.88 4.84497H8.55002C5.48996 4.84497 3 7.32001 3 10.365V26.43C3 29.31 5.20496 31.665 8.02496 31.935ZM20.745 27C19.92 27 19.23 26.325 19.23 25.5C19.23 24.675 19.905 24 20.73 24H20.745C21.57 24 22.245 24.675 22.245 25.5C22.245 26.325 21.57 27 20.745 27ZM17.73 10.875C18.885 9.96002 20.37 9.62997 21.825 9.96002C23.58 10.365 24.975 11.7599 25.38 13.515C25.83 15.4949 25.035 17.505 23.355 18.615C22.65 19.08 22.215 19.95 22.215 20.88C22.215 21.72 21.54 22.38 20.715 22.38C19.89 22.38 19.215 21.72 19.215 20.88C19.215 18.93 20.145 17.145 21.69 16.125C22.2 15.7799 22.665 15.105 22.455 14.1899C22.305 13.56 21.78 13.035 21.15 12.8849C20.385 12.705 19.86 13.02 19.605 13.23C19.17 13.575 18.93 14.085 18.93 14.625C18.93 15.45 18.255 16.125 17.43 16.125C16.59 16.125 15.93 15.45 15.93 14.625C15.93 13.1549 16.59 11.79 17.73 10.875Z" fill="#DF7D4F"/>
</svg>
