<svg width="29" height="22" viewBox="0 0 29 22" fill="none" xmlns="http://www.w3.org/2000/svg">
<path d="M26.2812 22H2.71875C1.21438 22 0 20.7717 0 19.25V2.75C0 1.22833 1.21438 0 2.71875 0H26.2812C27.7856 0 29 1.22833 29 2.75V19.25C29 20.7717 27.7856 22 26.2812 22ZM2.71875 1.83333C2.21125 1.83333 1.8125 2.23667 1.8125 2.75V19.25C1.8125 19.7633 2.21125 20.1667 2.71875 20.1667H26.2812C26.7887 20.1667 27.1875 19.7633 27.1875 19.25V2.75C27.1875 2.23667 26.7887 1.83333 26.2812 1.83333H2.71875Z" fill="#00478E"/>
<path d="M14.5002 14.594C13.2314 14.594 12.0714 14.0806 11.2014 13.1456L1.68582 2.91562C1.34145 2.54896 1.35957 1.96229 1.72207 1.61396C2.08457 1.26562 2.66457 1.28396 3.00895 1.65062L12.5246 11.8806C13.5577 12.999 15.4427 12.999 16.4758 11.8806L25.9914 1.66896C26.3358 1.30229 26.9158 1.28396 27.2783 1.63229C27.6408 1.98062 27.6589 2.56729 27.3146 2.93396L17.7989 13.164C16.9289 14.099 15.7689 14.6123 14.5002 14.6123V14.594Z" fill="#00478E"/>
</svg>
