<svg width="25" height="25" viewBox="0 0 25 25" fill="none" xmlns="http://www.w3.org/2000/svg">
<path d="M17.5521 0H7.44684C5.47231 0.00232042 3.57934 0.787813 2.18325 2.18413C0.787163 3.58046 0.00198842 5.47356 0 7.44809L0 17.5534C0.00232042 19.5279 0.787813 21.4209 2.18413 22.8169C3.58046 24.213 5.47356 24.9982 7.44809 25.0002H17.5534C19.5279 24.9979 21.4209 24.2124 22.8169 22.8161C24.213 21.4197 24.9982 19.5266 25.0002 17.5521V7.44684C24.9979 5.47231 24.2124 3.57934 22.8161 2.18325C21.4197 0.787163 19.5266 0.00198842 17.5521 0V0ZM22.4858 17.5521C22.4858 18.2 22.3582 18.8416 22.1102 19.4401C21.8623 20.0387 21.4989 20.5826 21.0407 21.0407C20.5826 21.4989 20.0387 21.8623 19.4401 22.1102C18.8416 22.3582 18.2 22.4858 17.5521 22.4858H7.44684C6.13857 22.4854 4.88399 21.9655 3.95902 21.0403C3.03404 20.1151 2.51442 18.8604 2.51442 17.5521V7.44684C2.51475 6.13857 3.03469 4.88399 3.9599 3.95902C4.88511 3.03404 6.13982 2.51442 7.44809 2.51442H17.5534C18.8616 2.51475 20.1162 3.03469 21.0412 3.9599C21.9662 4.88511 22.4858 6.13982 22.4858 7.44809V17.5534V17.5521Z" fill="#00478E"/>
</svg>
