<svg width="32" height="32" viewBox="0 0 32 32" fill="none" xmlns="http://www.w3.org/2000/svg">
<path d="M16.0534 2.66658C8.7734 2.66658 2.84007 8.59991 2.84007 15.8799C2.84007 18.2132 3.4534 20.4799 4.60007 22.4799L2.7334 29.3332L9.7334 27.4932C11.6667 28.5466 13.8401 29.1066 16.0534 29.1066C23.3334 29.1066 29.2667 23.1732 29.2667 15.8932C29.2667 12.3599 27.8934 9.03991 25.4001 6.54658C24.1775 5.31205 22.7214 4.3332 21.1167 3.66706C19.5121 3.00092 17.7908 2.66082 16.0534 2.66658ZM16.0667 4.89324C19.0001 4.89324 21.7467 6.03991 23.8267 8.11991C24.8472 9.1406 25.6564 10.3526 26.2078 11.6865C26.7592 13.0203 27.042 14.4499 27.0401 15.8932C27.0401 21.9466 22.1067 26.8666 16.0534 26.8666C14.0801 26.8666 12.1467 26.3466 10.4667 25.3332L10.0667 25.1066L5.90673 26.1999L7.0134 22.1466L6.74673 21.7199C5.64613 19.9711 5.06362 17.9462 5.06673 15.8799C5.08007 9.82658 10.0001 4.89324 16.0667 4.89324ZM11.3734 9.77324C11.1601 9.77324 10.8001 9.85324 10.4934 10.1866C10.2001 10.5199 9.3334 11.3332 9.3334 12.9466C9.3334 14.5732 10.5201 16.1332 10.6667 16.3599C10.8534 16.5866 13.0134 19.9199 16.3334 21.3332C17.1201 21.6932 17.7334 21.8932 18.2134 22.0399C19.0001 22.2932 19.7201 22.2532 20.2934 22.1732C20.9334 22.0799 22.2401 21.3732 22.5201 20.5999C22.8001 19.8266 22.8001 19.1732 22.7201 19.0266C22.6267 18.8932 22.4134 18.8132 22.0801 18.6666C21.7467 18.4799 20.1201 17.6799 19.8267 17.5732C19.5201 17.4666 19.3334 17.4132 19.0801 17.7332C18.8667 18.0666 18.2267 18.8132 18.0401 19.0266C17.8401 19.2532 17.6534 19.2799 17.3334 19.1199C16.9867 18.9466 15.9201 18.5999 14.6667 17.4799C13.6801 16.5999 13.0267 15.5199 12.8267 15.1866C12.6667 14.8666 12.8134 14.6666 12.9734 14.5199C13.1201 14.3732 13.3334 14.1332 13.4667 13.9332C13.6401 13.7466 13.6934 13.5999 13.8001 13.3866C13.9067 13.1599 13.8534 12.9732 13.7734 12.8132C13.6934 12.6666 13.0267 11.0132 12.7467 10.3599C12.4801 9.71991 12.2134 9.79991 12.0001 9.78658C11.8134 9.78658 11.6001 9.77324 11.3734 9.77324Z" fill="#00478E"/>
</svg>
