<svg width="27" height="27" viewBox="0 0 27 27" fill="none" xmlns="http://www.w3.org/2000/svg">
<path d="M13.4866 7.27589e-05C6.11554 7.27589e-05 0.108001 6.00761 0.108001 13.3787C0.108001 15.7412 0.729005 18.0362 1.89001 20.0612L0 27.0002L7.08754 25.1372C9.04505 26.2037 11.2456 26.7707 13.4866 26.7707C20.8576 26.7707 26.8652 20.7632 26.8652 13.3922C26.8652 9.81463 25.4747 6.45311 22.9501 3.9286C21.7123 2.67863 20.238 1.68754 18.6133 1.01307C16.9885 0.338599 15.2458 -0.00575531 13.4866 7.27589e-05ZM13.5001 2.25459C16.4701 2.25459 19.2511 3.41559 21.3571 5.52161C22.3904 6.55506 23.2097 7.78221 23.7679 9.13277C24.3262 10.4833 24.6126 11.9308 24.6107 13.3922C24.6107 19.5212 19.6156 24.5027 13.4866 24.5027C11.4886 24.5027 9.53106 23.9762 7.83005 22.9502L7.42504 22.7207L3.21302 23.8277L4.33353 19.7237L4.06352 19.2917C2.94916 17.521 2.35937 15.4708 2.36251 13.3787C2.37601 7.24962 7.35754 2.25459 13.5001 2.25459ZM8.74805 7.19562C8.53205 7.19562 8.16755 7.27662 7.85705 7.61412C7.56005 7.95162 6.68254 8.77513 6.68254 10.4086C6.68254 12.0556 7.88405 13.6352 8.03255 13.8647C8.22155 14.0942 10.4086 17.4692 13.7701 18.9002C14.5666 19.2647 15.1876 19.4672 15.6736 19.6157C16.4701 19.8722 17.1991 19.8317 17.7796 19.7507C18.4276 19.6562 19.7506 18.9407 20.0341 18.1577C20.3176 17.3747 20.3176 16.7132 20.2366 16.5647C20.1421 16.4297 19.9261 16.3487 19.5886 16.2002C19.2511 16.0112 17.6041 15.2012 17.3071 15.0932C16.9966 14.9852 16.8076 14.9312 16.5511 15.2552C16.3351 15.5927 15.6871 16.3487 15.4981 16.5647C15.2956 16.7942 15.1066 16.8212 14.7826 16.6592C14.4316 16.4837 13.3516 16.1327 12.0826 14.9987C11.0836 14.1077 10.4221 13.0142 10.2196 12.6767C10.0576 12.3526 10.2061 12.1501 10.3681 12.0016C10.5166 11.8531 10.7326 11.6101 10.8676 11.4076C11.0431 11.2186 11.0971 11.0701 11.2051 10.8541C11.3131 10.6246 11.2591 10.4356 11.1781 10.2736C11.0971 10.1251 10.4221 8.45112 10.1386 7.78962C9.86856 7.14162 9.59856 7.22262 9.38256 7.20912C9.19356 7.20912 8.97755 7.19562 8.74805 7.19562Z" fill="#00478E"/>
</svg>
