<svg width="27" height="25" viewBox="0 0 27 25" fill="none" xmlns="http://www.w3.org/2000/svg">
<path fill-rule="evenodd" clip-rule="evenodd" d="M3.3554 1.07201C4.99997 -0.563105 7.70804 -0.272568 9.08505 1.56795L10.7904 3.84359C11.912 5.34087 11.812 7.43273 10.481 8.75569L10.1594 9.07731C10.1229 9.21232 10.1192 9.35408 10.1486 9.49081C10.2337 10.0422 10.6945 11.2097 12.6242 13.1286C14.5539 15.0475 15.7296 15.507 16.289 15.5934C16.43 15.6218 16.5756 15.6176 16.7147 15.5813L17.266 15.0326C18.4498 13.857 20.266 13.6367 21.7308 14.4326L24.3119 15.838C26.524 17.038 27.0821 20.0434 25.2713 21.8447L23.3511 23.7528C22.7457 24.3541 21.9322 24.8555 20.9403 24.9487C18.4944 25.1771 12.7958 24.8852 6.80535 18.9299C1.21489 13.3705 0.141927 8.52191 0.00544183 6.13275C-0.0621248 4.92466 0.508138 3.90305 1.23516 3.18144L3.3554 1.07201ZM7.46345 2.7828C6.77833 1.86794 5.50267 1.79497 4.78376 2.50983L2.66216 4.61791C2.21622 5.06114 2.00271 5.55033 2.02974 6.01789C2.13785 7.91651 3.0027 12.2908 8.23506 17.4934C13.7242 22.9501 18.793 23.1136 20.7525 22.9298C21.1525 22.8933 21.5498 22.6852 21.9214 22.3163L23.8403 20.4069C24.6213 19.6312 24.4497 18.2177 23.3443 17.6177L20.7633 16.2137C20.0498 15.8272 19.2146 15.9542 18.6957 16.4705L18.0809 17.0826L17.3647 16.3637C18.0809 17.0826 18.0795 17.084 18.0782 17.084L18.0768 17.0867L18.0728 17.0907L18.0633 17.0988L18.043 17.1177C17.986 17.1707 17.9245 17.2186 17.8593 17.261C17.7512 17.3326 17.6079 17.4123 17.4282 17.4785C17.0633 17.615 16.5795 17.688 15.9823 17.5961C14.8107 17.4164 13.258 16.6177 11.1945 14.5664C9.13235 12.5151 8.32695 10.9719 8.14588 9.80162C8.05263 9.20433 8.12696 8.72056 8.26479 8.3557C8.34065 8.15039 8.44926 7.95872 8.58641 7.78814L8.62965 7.74084L8.64857 7.72057L8.65668 7.71246L8.66073 7.70841L8.66344 7.7057L9.05262 7.31922C9.63099 6.7422 9.71207 5.78681 9.16748 5.05844L7.46345 2.7828Z" fill="#00478E"/>
</svg>
