<svg width="13" height="13" viewBox="0 0 13 13" fill="none" xmlns="http://www.w3.org/2000/svg">
<path d="M6.49814 0C4.77533 0.00266429 3.12386 0.688316 1.90576 1.90665C0.687662 3.12498 0.00233057 4.77659 0 6.4994C0.00199833 8.22265 0.687356 9.87477 1.90576 11.0934C3.12417 12.3121 4.77615 12.9977 6.4994 13.0001C8.22287 12.9981 9.87518 12.3125 11.0939 11.0939C12.3125 9.87518 12.9981 8.22287 13.0001 6.4994C12.9974 4.77615 12.3114 3.1243 11.0925 1.90613C9.87364 0.687962 8.22139 0.00292388 6.49814 0.00125935V0ZM6.49814 10.4723C5.4448 10.4723 4.43459 10.0539 3.68976 9.30904C2.94494 8.56421 2.5265 7.55401 2.5265 6.50066C2.5265 5.44731 2.94494 4.43711 3.68976 3.69228C4.43459 2.94745 5.4448 2.52901 6.49814 2.52901C7.55149 2.52901 8.56169 2.94745 9.30652 3.69228C10.0513 4.43711 10.4698 5.44731 10.4698 6.50066C10.4698 7.55401 10.0513 8.56421 9.30652 9.30904C8.56169 10.0539 7.55149 10.4723 6.49814 10.4723Z" fill="#00478E"/>
</svg>
