<svg width="32" height="32" viewBox="0 0 32 32" fill="none" xmlns="http://www.w3.org/2000/svg">
<path d="M27.7812 27H4.21875C2.71438 27 1.5 25.7717 1.5 24.25V7.75C1.5 6.22833 2.71438 5 4.21875 5H27.7812C29.2856 5 30.5 6.22833 30.5 7.75V24.25C30.5 25.7717 29.2856 27 27.7812 27ZM4.21875 6.83333C3.71125 6.83333 3.3125 7.23667 3.3125 7.75V24.25C3.3125 24.7633 3.71125 25.1667 4.21875 25.1667H27.7812C28.2887 25.1667 28.6875 24.7633 28.6875 24.25V7.75C28.6875 7.23667 28.2887 6.83333 27.7812 6.83333H4.21875Z" fill="#00478E"/>
<path d="M16.0002 19.594C14.7314 19.594 13.5714 19.0806 12.7014 18.1456L3.18582 7.91562C2.84145 7.54896 2.85957 6.96229 3.22207 6.61396C3.58457 6.26562 4.16457 6.28396 4.50895 6.65062L14.0246 16.8806C15.0577 17.999 16.9427 17.999 17.9758 16.8806L27.4914 6.66896C27.8358 6.30229 28.4158 6.28396 28.7783 6.63229C29.1408 6.98062 29.1589 7.56729 28.8146 7.93396L19.2989 18.164C18.4289 19.099 17.2689 19.6123 16.0002 19.6123V19.594Z" fill="#00478E"/>
</svg>
