<svg width="29" height="22" viewBox="0 0 29 22" fill="none" xmlns="http://www.w3.org/2000/svg">
<path d="M26.2812 22H2.71875C1.21438 22 0 20.7717 0 19.25V2.75C0 1.22833 1.21438 0 2.71875 0H26.2812C27.7856 0 29 1.22833 29 2.75V19.25C29 20.7717 27.7856 22 26.2812 22ZM2.71875 1.83333C2.21125 1.83333 1.8125 2.23667 1.8125 2.75V19.25C1.8125 19.7633 2.21125 20.1667 2.71875 20.1667H26.2812C26.7887 20.1667 27.1875 19.7633 27.1875 19.25V2.75C27.1875 2.23667 26.7887 1.83333 26.2812 1.83333H2.71875Z" fill="#00478E"/>
</svg>
