<svg width="15" height="25" viewBox="0 0 15 25" fill="none" xmlns="http://www.w3.org/2000/svg">
<path fill-rule="evenodd" clip-rule="evenodd" d="M10.7595 4.43038C9.53608 4.43038 8.5443 5.42215 8.5443 6.64557V9.88355C8.5443 10.0178 8.65312 10.1266 8.78734 10.1266H13.6438C13.7917 10.1266 13.9053 10.2576 13.8844 10.404L13.3209 14.3483C13.3038 14.468 13.2013 14.557 13.0804 14.557H8.78734C8.65312 14.557 8.5443 14.6658 8.5443 14.8V24.757C8.5443 24.8912 8.43549 25 8.30127 25H4.35696C4.22274 25 4.11392 24.8912 4.11392 24.757V14.8C4.11392 14.6658 4.00511 14.557 3.87089 14.557H0.243038C0.108812 14.557 0 14.4482 0 14.3139V10.3696C0 10.2354 0.108812 10.1266 0.243038 10.1266H3.87089C4.00511 10.1266 4.11392 10.0178 4.11392 9.88355V6.64557C4.11392 2.97532 7.08925 0 10.7595 0H14.3139C14.4482 0 14.557 0.108812 14.557 0.243038V4.18734C14.557 4.32157 14.4482 4.43038 14.3139 4.43038H10.7595Z" fill="#00478E"/>
</svg>
