<svg width="40" height="40" viewBox="0 0 40 40" fill="none" xmlns="http://www.w3.org/2000/svg">
<rect width="40" height="40" rx="20" fill="white"/>
<path fill-rule="evenodd" clip-rule="evenodd" d="M23.5234 12.1875C22.3153 12.1875 21.3359 13.1669 21.3359 14.375V17.5725C21.3359 17.705 21.4434 17.8125 21.5759 17.8125H26.3717C26.5178 17.8125 26.63 17.9419 26.6093 18.0864L26.0529 21.9814C26.036 22.0997 25.9347 22.1875 25.8153 22.1875H21.5759C21.4434 22.1875 21.3359 22.295 21.3359 22.4275V32.26C21.3359 32.3926 21.2285 32.5 21.0959 32.5H17.2009C17.0684 32.5 16.9609 32.3926 16.9609 32.26V22.4275C16.9609 22.295 16.8535 22.1875 16.7209 22.1875H13.1384C13.0059 22.1875 12.8984 22.08 12.8984 21.9475V18.0525C12.8984 17.92 13.0059 17.8125 13.1384 17.8125H16.7209C16.8535 17.8125 16.9609 17.705 16.9609 17.5725V14.375C16.9609 10.7506 19.8991 7.8125 23.5234 7.8125H27.0334C27.166 7.8125 27.2734 7.91995 27.2734 8.0525V11.9475C27.2734 12.08 27.166 12.1875 27.0334 12.1875H23.5234Z" fill="#00478E"/>
</svg>
