<svg width="103" height="52" viewBox="0 0 103 52" fill="none" xmlns="http://www.w3.org/2000/svg">
<path d="M19.6694 9.40271C19.4732 9.06348 19.1894 8.78218 18.8471 8.58777C18.4844 8.38063 18.0734 8.27106 17.6548 8.26993C17.2372 8.26219 16.8252 8.36637 16.4624 8.57147C16.1267 8.77429 15.8448 9.0537 15.6401 9.38641C15.4328 9.73895 15.3236 10.1397 15.3236 10.5477C15.3236 10.9557 15.4328 11.3565 15.6401 11.709C15.8467 12.0402 16.1282 12.3192 16.4624 12.524C16.8202 12.7276 17.2257 12.8344 17.6383 12.8336C18.0583 12.8393 18.4723 12.7353 18.8389 12.5321C19.1788 12.3347 19.4619 12.0541 19.6612 11.7172C19.8739 11.3712 19.985 10.9732 19.9819 10.5681C19.9884 10.1585 19.8802 9.75509 19.6694 9.40271Z" fill="white"/>
<path d="M48.2115 7.86234C48.0114 7.5261 47.7284 7.24569 47.3892 7.04739C46.8499 6.73776 46.2097 6.64968 45.6057 6.80199C45.0017 6.95431 44.4819 7.33492 44.1575 7.86234C43.9465 8.21503 43.8357 8.6177 43.8368 9.02771C43.836 9.4304 43.9409 9.82638 44.1411 10.1768C44.3554 10.5158 44.6523 10.7961 45.0045 10.9917C45.3615 11.1972 45.7675 11.3042 46.1804 11.3014C46.5977 11.3072 47.0092 11.2031 47.3727 10.9999C47.7253 10.8048 48.0223 10.5244 48.2361 10.1849C48.4461 9.8378 48.557 9.44062 48.5569 9.03586C48.5563 8.62015 48.4365 8.21315 48.2115 7.86234Z" fill="white"/>
<path d="M52.8661 18.2122C52.2708 16.9895 51.3238 15.9687 50.1442 15.2784C48.9161 14.5907 47.5254 14.2391 46.1149 14.2597C44.7189 14.2289 43.3397 14.5664 42.1185 15.2377C40.9529 15.889 39.9955 16.852 39.3556 18.0167C38.6838 19.2352 38.341 20.6051 38.3606 21.9936C38.3355 22.8993 38.5101 23.7994 38.8723 24.6313C39.2344 25.4632 39.7754 26.2067 40.4575 26.8099L23.7071 26.7447C23.1587 26.7782 22.6095 26.6952 22.0961 26.5013C21.5827 26.3073 21.1171 26.0069 20.7303 25.6201C19.9906 24.6988 19.6293 23.5344 19.7189 22.3603V15.1399L4.81047 15.0747V27.6819C4.9112 28.9251 4.54517 30.1614 3.78259 31.1536C3.37952 31.5561 2.89231 31.8661 2.35527 32.0619C1.81823 32.2576 1.24443 32.3342 0.674272 32.2864H0V34.5438H1.19233C3.84016 34.5438 5.81918 33.9108 7.12938 32.645C8.38841 31.2902 9.08706 29.5156 9.08648 27.6738L9.12758 24.6422V18.033H15.3936V22.287C15.3936 26.3128 17.6467 28.2687 18.6828 28.8066C19.8348 29.4343 21.1348 29.7465 22.449 29.7112L53.7788 29.8415V22.6945C53.8259 21.1507 53.5136 19.617 52.8661 18.2122ZM49.5357 26.8507H47.1099C46.4966 26.8941 45.881 26.8092 45.3029 26.6014C44.7249 26.3936 44.1975 26.0676 43.7549 25.6446C42.9438 24.6767 42.5403 23.4362 42.6284 22.181C42.6219 21.1714 42.766 20.1663 43.056 19.1983C43.2889 18.5471 43.7127 17.9796 44.273 17.5684C44.8134 17.1761 45.4699 16.9726 46.1396 16.9898C46.6415 16.975 47.1385 17.0906 47.5814 17.325C48.0242 17.5595 48.3975 17.9047 48.6641 18.3263C49.2644 19.2065 49.5604 21.0727 49.5522 22.7271L49.5357 26.8507Z" fill="white"/>
<path d="M13.4937 36.3775V40.5011H19.0114V41.7969H13.4855V47.1185H10.9774L11.0267 35.0898H20.2612V36.3775H13.4937Z" fill="white"/>
<path d="M43.9855 47.2409H41.5597V41.8296C41.5911 41.507 41.5523 41.1815 41.446 40.875C41.3396 40.5685 41.168 40.2882 40.943 40.053C40.4324 39.655 39.7901 39.4603 39.1422 39.507H36.889V47.2327H34.4632V38.2683H39.1422C40.4296 38.183 41.711 38.5055 42.8014 39.1892C43.2012 39.4997 43.5176 39.9031 43.7227 40.3636C43.9278 40.8241 44.0152 41.3277 43.9773 41.8296L43.9855 47.2409Z" fill="white"/>
<path d="M53.7456 39.5477H52.2655C51.9389 39.5274 51.6114 39.5717 51.3023 39.6781C50.9931 39.7844 50.7084 39.9506 50.4647 40.1671C50.24 40.4213 50.0684 40.7171 49.9597 41.0374C49.851 41.3577 49.8074 41.6962 49.8315 42.0333V47.2734H47.4057V42.0415C47.378 41.5275 47.467 41.0139 47.6663 40.5386C47.8655 40.0633 48.1699 39.6383 48.5569 39.2951C49.4775 38.5971 50.6243 38.2578 51.7803 38.3416H53.7785L53.7456 39.5477Z" fill="white"/>
<path d="M30.7873 39.9876C30.5808 39.5464 30.2774 39.1565 29.8992 38.8466C29.4733 38.5063 28.9845 38.2516 28.4602 38.0969C27.8243 37.9148 27.1648 37.8269 26.5031 37.8361C26.203 37.8349 25.9034 37.8567 25.6067 37.9013C25.2819 37.9446 24.9605 38.0099 24.6447 38.0969C24.3229 38.1792 24.0069 38.2827 23.699 38.4066C23.4085 38.5244 23.1326 38.6748 22.8767 38.8548L23.477 39.8816C23.8914 39.6124 24.3428 39.4038 24.8173 39.2623C25.3096 39.1091 25.8227 39.0322 26.3386 39.0341C26.9558 39.0163 27.5574 39.2286 28.0243 39.629C28.4168 40.0165 28.6435 40.5389 28.6575 41.0877H25.5821C23.1645 41.0877 21.6514 42.2531 21.6432 44.1845C21.635 46.116 23.074 47.3628 25.3929 47.371C26.5805 47.374 27.7361 46.9903 28.6822 46.279V47.1835H31.1491V41.4789C31.1366 40.962 31.0133 40.4536 30.7873 39.9876ZM28.6411 44.9506C27.864 45.3698 26.9931 45.5884 26.1084 45.5863C24.8009 45.5863 24.0361 45.0158 24.0361 44.0379C24.0361 43.0599 24.8585 42.5058 26.1824 42.5139H28.6493L28.6411 44.9506Z" fill="white"/>
<path d="M66.4429 47.9409C65.9063 47.9368 65.3798 47.7965 64.9135 47.5334C64.4469 47.2674 64.0596 46.8838 63.791 46.4215C63.5224 45.9592 63.382 45.4347 63.384 44.9012V23.803C63.3885 21.4708 64.0105 19.1806 65.188 17.1614C66.3654 15.1421 68.0571 13.4645 70.0938 12.2963L90.9139 0.38219C91.3496 0.132902 91.8435 0.00112842 92.3465 7.21523e-06C92.8496 -0.00111399 93.3441 0.128455 93.7809 0.375799C94.2177 0.623143 94.5814 0.979622 94.8358 1.4097C95.0902 1.83978 95.2264 2.32843 95.2309 2.82695V15.0507C95.23 15.8213 95.0252 16.5782 94.6371 17.246C94.249 17.9137 93.6911 18.469 93.019 18.8564L80.7917 25.8566C80.7328 25.8882 80.6839 25.9355 80.6505 25.993C80.6171 26.0506 80.6005 26.1162 80.6025 26.1825V37.8033C80.6005 38.5642 80.3975 39.3113 80.0137 39.9704C79.63 40.6294 79.0789 41.1775 78.4153 41.5601L67.9806 47.5253C67.5139 47.7957 66.9835 47.9391 66.4429 47.9409ZM92.1802 3.12032L71.5821 14.9122C70.0106 15.8162 68.7058 17.113 67.7982 18.6732C66.8906 20.2333 66.4119 22.0021 66.41 23.803V44.9012L76.853 38.936C77.0541 38.8219 77.2209 38.6569 77.3365 38.4579C77.4521 38.2588 77.5122 38.0329 77.5108 37.8033V26.1988C77.5124 25.6012 77.6719 25.0145 77.9734 24.4969C78.275 23.9794 78.7079 23.5491 79.2293 23.2488L91.4566 16.2568C91.6667 16.1357 91.841 15.9621 91.9622 15.7533C92.0834 15.5445 92.1472 15.3079 92.1473 15.067L92.1802 3.12032Z" fill="url(#paint0_linear_2501_2299)"/>
<path d="M100.872 4.43252C100.435 4.18057 99.9386 4.04785 99.4331 4.04785C98.9276 4.04785 98.4311 4.18057 97.9941 4.43252L74.6167 17.8053C73.3561 18.5305 72.3092 19.5705 71.5806 20.8216C70.852 22.0727 70.4671 23.4913 70.4642 24.9359V42.6033L73.5231 40.8513V24.9359C73.524 24.0239 73.7659 23.128 74.2247 22.3374C74.6834 21.5468 75.3431 20.8889 76.138 20.4294L99.2604 7.20324V15.5236C99.2577 16.8561 98.9025 18.1646 98.2301 19.3186C97.5578 20.4725 96.5918 21.4316 95.4286 22.1L84.6321 28.3015V38.4065C84.6286 39.6906 84.285 40.9513 83.6356 42.0625C82.9863 43.1736 82.0539 44.0964 80.9318 44.7384L73.5313 48.9679V44.3554L70.4724 46.1075V48.9516C70.465 49.4865 70.6017 50.0138 70.8684 50.4789C71.1351 50.944 71.5222 51.3302 71.9898 51.5976C72.4574 51.865 72.9885 52.004 73.5283 52.0001C74.0681 51.9962 74.5971 51.8497 75.0608 51.5756L82.4613 47.3462C84.0431 46.4325 85.356 45.1242 86.2692 43.5515C87.1823 41.9788 87.664 40.1966 87.6663 38.3821V30.0291L96.9416 24.7322C98.5696 23.795 99.9217 22.452 100.864 20.8365C101.806 19.221 102.305 17.3894 102.311 15.5236V6.90172C102.313 6.40071 102.181 5.90806 101.929 5.47421C101.676 5.04035 101.311 4.68085 100.872 4.43252Z" fill="url(#paint1_linear_2501_2299)"/>
<defs>
<linearGradient id="paint0_linear_2501_2299" x1="62.718" y1="48.0876" x2="91.6706" y2="-4.85792" gradientUnits="userSpaceOnUse">
<stop stop-color="#00ABE4"/>
<stop offset="0.23" stop-color="#34B09A"/>
<stop offset="0.39" stop-color="#55B46C"/>
<stop offset="0.47" stop-color="#62B55A"/>
<stop offset="0.92" stop-color="#FDC61E"/>
</linearGradient>
<linearGradient id="paint1_linear_2501_2299" x1="86.3877" y1="4.04785" x2="86.3877" y2="52.0002" gradientUnits="userSpaceOnUse">
<stop stop-color="#00ABE4"/>
<stop offset="1" stop-color="#1448B0"/>
</linearGradient>
</defs>
</svg>
