<svg width="103" height="52" viewBox="0 0 103 52" fill="none" xmlns="http://www.w3.org/2000/svg">
<path d="M19.6696 9.40263C19.4734 9.0634 19.1896 8.7821 18.8473 8.58769C18.4846 8.38055 18.0735 8.27098 17.6549 8.26985C17.2373 8.26211 16.8254 8.36629 16.4626 8.57139C16.1269 8.77421 15.8449 9.05362 15.6403 9.38633C15.433 9.73887 15.3237 10.1396 15.3237 10.5476C15.3237 10.9557 15.433 11.3564 15.6403 11.7089C15.8469 12.0401 16.1284 12.3191 16.4626 12.5239C16.8203 12.7275 17.2259 12.8343 17.6385 12.8336C18.0584 12.8392 18.4725 12.7352 18.839 12.532C19.179 12.3346 19.4621 12.054 19.6613 11.7171C19.8741 11.3711 19.9852 10.9732 19.982 10.568C19.9885 10.1584 19.8804 9.75501 19.6696 9.40263Z" fill="#00468E"/>
<path d="M48.2116 7.86244C48.0115 7.5262 47.7285 7.2458 47.3893 7.0475C46.85 6.73787 46.2098 6.64978 45.6058 6.8021C45.0018 6.95441 44.482 7.33502 44.1576 7.86244C43.9466 8.21514 43.8358 8.61781 43.8369 9.02782C43.8361 9.43051 43.9409 9.82648 44.1412 10.1769C44.3555 10.5159 44.6524 10.7962 45.0046 10.9918C45.3616 11.1973 45.7676 11.3043 46.1805 11.3015C46.5978 11.3073 47.0093 11.2032 47.3728 11C47.7254 10.8049 48.0224 10.5245 48.2362 10.185C48.4462 9.8379 48.5571 9.44072 48.5569 9.03597C48.5564 8.62025 48.4366 8.21325 48.2116 7.86244Z" fill="#00468E"/>
<path d="M52.8661 18.2124C52.2708 16.9897 51.3238 15.9689 50.1442 15.2786C48.9161 14.5908 47.5254 14.2392 46.1149 14.2599C44.7189 14.2291 43.3397 14.5666 42.1185 15.2378C40.9529 15.8892 39.9955 16.8521 39.3556 18.0168C38.6838 19.2354 38.341 20.6053 38.3606 21.9937C38.3355 22.8994 38.5101 23.7996 38.8722 24.6314C39.2344 25.4633 39.7754 26.2068 40.4575 26.8101L23.7071 26.7449C23.1587 26.7784 22.6094 26.6954 22.0961 26.5014C21.5827 26.3075 21.117 26.007 20.7303 25.6203C19.9906 24.6989 19.6293 23.5346 19.7189 22.3605V15.14L4.81047 15.0748V27.6821C4.9112 28.9253 4.54516 30.1616 3.78259 31.1538C3.37952 31.5563 2.89231 31.8663 2.35527 32.062C1.81823 32.2577 1.24443 32.3344 0.674272 32.2865H0V34.5439H1.19233C3.84016 34.5439 5.81917 33.911 7.12938 32.6451C8.38841 31.2904 9.08706 29.5157 9.08647 27.6739L9.12758 24.6423V18.0331H15.3936V22.2871C15.3936 26.313 17.6467 28.2688 18.6828 28.8067C19.8348 29.4344 21.1348 29.7466 22.449 29.7113L53.7788 29.8417V22.6946C53.8259 21.1509 53.5136 19.6172 52.8661 18.2124ZM49.5357 26.8508H47.1099C46.4966 26.8943 45.881 26.8093 45.3029 26.6015C44.7249 26.3937 44.1975 26.0677 43.7549 25.6447C42.9437 24.6768 42.5403 23.4363 42.6284 22.1812C42.6219 21.1715 42.766 20.1664 43.0559 19.1985C43.2889 18.5473 43.7127 17.9798 44.273 17.5686C44.8134 17.1763 45.4699 16.9728 46.1396 16.99C46.6415 16.9752 47.1385 17.0907 47.5814 17.3252C48.0242 17.5596 48.3975 17.9048 48.6641 18.3265C49.2644 19.2066 49.5604 21.0729 49.5522 22.7272L49.5357 26.8508Z" fill="#00468E"/>
<path d="M13.4938 36.3775V40.5012H19.0115V41.7969H13.4856V47.1185H10.9775L11.0269 35.0899H20.2614V36.3775H13.4938Z" fill="#00468E"/>
<path d="M43.9857 47.2406H41.5599V41.8294C41.5913 41.5067 41.5525 41.1812 41.4461 40.8747C41.3397 40.5682 41.1682 40.2879 40.9431 40.0528C40.4325 39.6547 39.7903 39.46 39.1423 39.5068H36.8892V47.2325H34.4634V38.268H39.1423C40.4297 38.1828 41.7112 38.5052 42.8016 39.1889C43.2013 39.4995 43.5178 39.9028 43.7228 40.3633C43.9279 40.8239 44.0154 41.3274 43.9775 41.8294L43.9857 47.2406Z" fill="#00468E"/>
<path d="M53.7458 39.5477H52.2656C51.939 39.5274 51.6116 39.5717 51.3024 39.6781C50.9932 39.7844 50.7085 39.9506 50.4648 40.1671C50.2401 40.4213 50.0685 40.7171 49.9598 41.0374C49.8512 41.3578 49.8076 41.6962 49.8316 42.0333V47.2734H47.4058V42.0415C47.3781 41.5275 47.4671 41.0139 47.6664 40.5386C47.8656 40.0633 48.17 39.6383 48.557 39.2951C49.4776 38.5971 50.6245 38.2579 51.7805 38.3416H53.7787L53.7458 39.5477Z" fill="#00468E"/>
<path d="M30.7872 39.9877C30.5807 39.5465 30.2773 39.1567 29.8991 38.8468C29.4732 38.5064 28.9844 38.2517 28.46 38.097C27.8242 37.9149 27.1647 37.827 26.5029 37.8362C26.2029 37.8351 25.9033 37.8569 25.6066 37.9014C25.2818 37.9447 24.9603 38.01 24.6445 38.097C24.3227 38.1793 24.0068 38.2828 23.6989 38.4067C23.4084 38.5245 23.1325 38.6749 22.8766 38.8549L23.4768 39.8817C23.8913 39.6125 24.3427 39.4039 24.8172 39.2624C25.3094 39.1092 25.8226 39.0323 26.3385 39.0342C26.9557 39.0164 27.5572 39.2287 28.0242 39.6291C28.4166 40.0166 28.6434 40.539 28.6574 41.0879H25.5819C23.1644 41.0879 21.6513 42.2532 21.6431 44.1847C21.6349 46.1161 23.0739 47.363 25.3928 47.3711C26.5803 47.3741 27.736 46.9904 28.682 46.2791V47.1837H31.149V41.479C31.1365 40.9621 31.0132 40.4537 30.7872 39.9877ZM28.6409 44.9507C27.8639 45.3699 26.9929 45.5885 26.1082 45.5864C24.8008 45.5864 24.036 45.0159 24.036 44.038C24.036 43.06 24.8583 42.5059 26.1822 42.514H28.6492L28.6409 44.9507Z" fill="#00468E"/>
<path d="M66.4427 47.9409C65.9061 47.9367 65.3796 47.7965 64.9132 47.5334C64.4467 47.2674 64.0594 46.8838 63.7908 46.4215C63.5221 45.9592 63.3817 45.4347 63.3838 44.9012V23.803C63.3882 21.4708 64.0103 19.1806 65.1877 17.1614C66.3652 15.1421 68.0569 13.4645 70.0936 12.2963L90.9137 0.38219C91.3493 0.132902 91.8433 0.00112842 92.3463 7.21523e-06C92.8493 -0.00111399 93.3439 0.128455 93.7807 0.375799C94.2174 0.623143 94.5812 0.979622 94.8356 1.4097C95.09 1.83978 95.2262 2.32843 95.2306 2.82695V15.0507C95.2297 15.8213 95.025 16.5782 94.6369 17.246C94.2488 17.9137 93.6908 18.469 93.0187 18.8564L80.7914 25.8566C80.7326 25.8882 80.6837 25.9355 80.6503 25.993C80.6169 26.0506 80.6003 26.1162 80.6023 26.1825V37.8033C80.6002 38.5642 80.3972 39.3113 80.0135 39.9704C79.6298 40.6294 79.0787 41.1775 78.415 41.5601L67.9803 47.5253C67.5137 47.7957 66.9832 47.939 66.4427 47.9409ZM92.18 3.12032L71.5819 14.9122C70.0103 15.8162 68.7056 17.113 67.798 18.6732C66.8904 20.2333 66.4117 22.0021 66.4098 23.803V44.9012L76.8527 38.936C77.0538 38.8219 77.2207 38.6569 77.3363 38.4579C77.4519 38.2588 77.512 38.0329 77.5105 37.8033V26.1988C77.5122 25.6012 77.6717 25.0144 77.9732 24.4969C78.2747 23.9793 78.7077 23.5491 79.2291 23.2488L91.4564 16.2568C91.6664 16.1357 91.8408 15.9621 91.962 15.7533C92.0832 15.5445 92.147 15.3079 92.1471 15.067L92.18 3.12032Z" fill="url(#paint0_linear_235_2870)"/>
<path d="M100.872 4.43236C100.435 4.18042 99.9382 4.0477 99.4327 4.0477C98.9272 4.0477 98.4307 4.18042 97.9937 4.43236L74.6163 17.8052C73.3557 18.5303 72.3088 19.5703 71.5802 20.8214C70.8516 22.0726 70.4667 23.4912 70.4638 24.9357V42.6032L73.5227 40.8511V24.9357C73.5237 24.0237 73.7656 23.1278 74.2243 22.3372C74.683 21.5466 75.3427 20.8888 76.1376 20.4292L99.26 7.20309V15.5234C99.2573 16.8559 98.9021 18.1645 98.2297 19.3184C97.5574 20.4724 96.5914 21.4314 95.4282 22.0998L84.6317 28.3013V38.4063C84.6282 39.6904 84.2846 40.9511 83.6352 42.0623C82.9859 43.1735 82.0535 44.0962 80.9314 44.7383L73.5309 48.9677V44.3553L70.4721 46.1073V48.9514C70.4646 49.4864 70.6013 50.0136 70.868 50.4787C71.1347 50.9439 71.5219 51.3301 71.9894 51.5975C72.457 51.8649 72.9881 52.0038 73.5279 51.9999C74.0677 51.9961 74.5968 51.8495 75.0604 51.5754L82.4609 47.346C84.0427 46.4324 85.3556 45.1241 86.2688 43.5514C87.182 41.9787 87.6636 40.1964 87.6659 38.3819V30.029L96.9412 24.732C98.5692 23.7948 99.9213 22.4518 100.863 20.8363C101.805 19.2209 102.304 17.3892 102.311 15.5234V6.90157C102.313 6.40055 102.181 5.90791 101.928 5.47405C101.675 5.04019 101.311 4.6807 100.872 4.43236Z" fill="url(#paint1_linear_235_2870)"/>
<defs>
<linearGradient id="paint0_linear_235_2870" x1="62.7177" y1="48.0876" x2="91.6704" y2="-4.85792" gradientUnits="userSpaceOnUse">
<stop stop-color="#00ABE4"/>
<stop offset="0.23" stop-color="#34B09A"/>
<stop offset="0.39" stop-color="#55B46C"/>
<stop offset="0.47" stop-color="#62B55A"/>
<stop offset="0.92" stop-color="#FDC61E"/>
</linearGradient>
<linearGradient id="paint1_linear_235_2870" x1="86.3873" y1="4.0477" x2="86.3873" y2="52" gradientUnits="userSpaceOnUse">
<stop stop-color="#00ABE4"/>
<stop offset="1" stop-color="#1448B0"/>
</linearGradient>
</defs>
</svg>
