<svg width="40" height="40" viewBox="0 0 40 40" fill="none" xmlns="http://www.w3.org/2000/svg">
<rect width="40" height="40" rx="20" fill="white"/>
<path d="M24.6205 7.5H14.533C12.5619 7.50232 10.6723 8.28643 9.27865 9.6803C7.88502 11.0742 7.10123 12.9639 7.09924 14.935L7.09924 25.0225C7.10156 26.9936 7.88567 28.8832 9.27954 30.2768C10.6734 31.6705 12.5632 32.4543 14.5342 32.4562H24.6217C26.5928 32.4539 28.4824 31.6698 29.8761 30.276C31.2697 28.8821 32.0535 26.9923 32.0555 25.0212V14.9338C32.0532 12.9627 31.2691 11.073 29.8752 9.67941C28.4813 8.28578 26.5916 7.50198 24.6205 7.5V7.5ZM29.5455 25.0212C29.5455 25.668 29.4181 26.3084 29.1706 26.906C28.9231 27.5035 28.5603 28.0464 28.103 28.5038C27.6457 28.9611 27.1027 29.3239 26.5052 29.5714C25.9077 29.8189 25.2673 29.9463 24.6205 29.9463H14.533C13.227 29.9459 11.9746 29.4269 11.0513 28.5033C10.128 27.5797 9.60924 26.3272 9.60924 25.0212V14.9338C9.60957 13.6278 10.1286 12.3754 11.0522 11.4521C11.9758 10.5287 13.2283 10.01 14.5342 10.01H24.6217C25.9277 10.0103 27.1801 10.5294 28.1034 11.4529C29.0268 12.3765 29.5455 13.629 29.5455 14.935V25.0225V25.0212Z" fill="#00478E"/>
<path d="M19.5771 13.5239C17.8664 13.5266 16.2265 14.2074 15.017 15.4172C13.8075 16.627 13.1269 18.267 13.1246 19.9777C13.1266 21.6888 13.8072 23.3293 15.017 24.5394C16.2269 25.7495 17.8672 26.4304 19.5784 26.4327C21.2897 26.4307 22.9304 25.75 24.1406 24.5399C25.3507 23.3297 26.0314 21.689 26.0334 19.9777C26.0307 18.2665 25.3496 16.6263 24.1392 15.4167C22.9289 14.2071 21.2883 13.5268 19.5771 13.5252V13.5239ZM19.5771 23.9227C18.5312 23.9227 17.5281 23.5072 16.7885 22.7676C16.0489 22.028 15.6334 21.0249 15.6334 19.9789C15.6334 18.933 16.0489 17.9299 16.7885 17.1903C17.5281 16.4507 18.5312 16.0352 19.5771 16.0352C20.6231 16.0352 21.6262 16.4507 22.3658 17.1903C23.1054 17.9299 23.5209 18.933 23.5209 19.9789C23.5209 21.0249 23.1054 22.028 22.3658 22.7676C21.6262 23.5072 20.6231 23.9227 19.5771 23.9227Z" fill="#00478E"/>
<path d="M26.0454 15.1189C26.8994 15.1189 27.5916 14.4266 27.5916 13.5726C27.5916 12.7186 26.8994 12.0264 26.0454 12.0264C25.1914 12.0264 24.4991 12.7186 24.4991 13.5726C24.4991 14.4266 25.1914 15.1189 26.0454 15.1189Z" fill="#00478E"/>
</svg>
