<svg width="25" height="25" viewBox="0 0 25 25" fill="none" xmlns="http://www.w3.org/2000/svg">
<path d="M17.552 0H7.44679C5.47227 0.0023204 3.57931 0.787807 2.18323 2.18412C0.787157 3.58043 0.00198841 5.47352 0 7.44804L0 17.5532C0.0023204 19.5277 0.787807 21.4207 2.18412 22.8168C3.58043 24.2129 5.47352 24.998 7.44804 25H17.5532C19.5277 24.9977 21.4207 24.2122 22.8168 22.8159C24.2129 21.4196 24.998 19.5265 25 17.552V7.44679C24.9977 5.47227 24.2122 3.57931 22.8159 2.18323C21.4196 0.787157 19.5265 0.00198841 17.552 0V0ZM22.4856 17.552C22.4856 18.1999 22.358 18.8414 22.1101 19.44C21.8621 20.0386 21.4987 20.5825 21.0406 21.0406C20.5825 21.4987 20.0386 21.8621 19.44 22.1101C18.8414 22.358 18.1999 22.4856 17.552 22.4856H7.44679C6.13852 22.4853 4.88395 21.9653 3.95899 21.0401C3.03402 20.1149 2.5144 18.8602 2.5144 17.552V7.44679C2.51473 6.13852 3.03467 4.88395 3.95987 3.95899C4.88507 3.03402 6.13977 2.5144 7.44804 2.5144H17.5532C18.8615 2.51473 20.1161 3.03467 21.041 3.95987C21.966 4.88507 22.4856 6.13977 22.4856 7.44804V17.5532V17.552Z" fill="#00478E"/>
</svg>
