<svg width="40" height="40" viewBox="0 0 40 40" fill="none" xmlns="http://www.w3.org/2000/svg">
<rect width="40" height="40" rx="20" fill="white"/>
<path d="M24.6204 7.5H14.5329C12.5618 7.50232 10.6722 8.28643 9.27853 9.6803C7.8849 11.0742 7.10111 12.9639 7.09912 14.935L7.09912 25.0225C7.10144 26.9936 7.88555 28.8832 9.27942 30.2768C10.6733 31.6705 12.5631 32.4543 14.5341 32.4562H24.6216C26.5927 32.4539 28.4823 31.6698 29.876 30.276C31.2696 28.8821 32.0534 26.9923 32.0554 25.0212V14.9338C32.0531 12.9627 31.2689 11.073 29.8751 9.67941C28.4812 8.28578 26.5914 7.50198 24.6204 7.5V7.5ZM29.5454 25.0212C29.5454 25.668 29.418 26.3084 29.1705 26.906C28.923 27.5035 28.5602 28.0464 28.1029 28.5038C27.6455 28.9611 27.1026 29.3239 26.5051 29.5714C25.9076 29.8189 25.2671 29.9463 24.6204 29.9463H14.5329C13.2269 29.9459 11.9745 29.4269 11.0512 28.5033C10.1278 27.5797 9.60912 26.3272 9.60912 25.0212V14.9338C9.60945 13.6278 10.1285 12.3754 11.0521 11.4521C11.9756 10.5287 13.2281 10.01 14.5341 10.01H24.6216C25.9276 10.0103 27.18 10.5294 28.1033 11.4529C29.0267 12.3765 29.5454 13.629 29.5454 14.935V25.0225V25.0212Z" fill="#00478E"/>
<path d="M19.577 13.5239C17.8663 13.5266 16.2264 14.2074 15.0169 15.4172C13.8073 16.627 13.1268 18.267 13.1245 19.9777C13.1265 21.6888 13.807 23.3293 15.0169 24.5394C16.2267 25.7495 17.8671 26.4304 19.5783 26.4327C21.2896 26.4307 22.9303 25.75 24.1404 24.5399C25.3506 23.3297 26.0313 21.689 26.0333 19.9777C26.0306 18.2665 25.3494 16.6263 24.1391 15.4167C22.9288 14.2071 21.2882 13.5268 19.577 13.5252V13.5239ZM19.577 23.9227C18.5311 23.9227 17.528 23.5072 16.7884 22.7676C16.0488 22.028 15.6333 21.0249 15.6333 19.9789C15.6333 18.933 16.0488 17.9299 16.7884 17.1903C17.528 16.4507 18.5311 16.0352 19.577 16.0352C20.623 16.0352 21.6261 16.4507 22.3657 17.1903C23.1053 17.9299 23.5208 18.933 23.5208 19.9789C23.5208 21.0249 23.1053 22.028 22.3657 22.7676C21.6261 23.5072 20.623 23.9227 19.577 23.9227Z" fill="#00478E"/>
<path d="M26.0453 15.1189C26.8992 15.1189 27.5915 14.4266 27.5915 13.5726C27.5915 12.7186 26.8992 12.0264 26.0453 12.0264C25.1913 12.0264 24.499 12.7186 24.499 13.5726C24.499 14.4266 25.1913 15.1189 26.0453 15.1189Z" fill="#00478E"/>
</svg>
