<svg width="20" height="18" viewBox="0 0 20 18" fill="none" xmlns="http://www.w3.org/2000/svg">
<path d="M3.99978 2.00089C3.99952 2.5313 3.78856 3.03987 3.41332 3.41474C3.03808 3.7896 2.5293 4.00005 1.99889 3.99978C1.46849 3.99952 0.959913 3.78856 0.585048 3.41332C0.210183 3.03808 -0.000264952 2.5293 2.50348e-07 1.99889C0.000265452 1.46849 0.211222 0.959913 0.586462 0.585048C0.961702 0.210183 1.47049 -0.000264952 2.00089 2.50348e-07C2.5313 0.000265452 3.03987 0.211222 3.41474 0.586462C3.7896 0.961702 4.00005 1.47049 3.99978 2.00089ZM4.05978 5.4807H0.0599969V18H4.05978V5.4807ZM10.3794 5.4807H6.39965V18H10.3394V11.4304C10.3394 7.77058 15.1092 7.4306 15.1092 11.4304V18H19.059V10.0705C19.059 3.90079 11.9993 4.13078 10.3394 7.16061L10.3794 5.4807Z" fill="#00478E"/>
</svg>
