<svg width="11" height="15" viewBox="0 0 11 15" fill="none" xmlns="http://www.w3.org/2000/svg">
<g clip-path="url(#clip0_2501_2335)">
<path d="M4.82109 14.5554C3.32578 12.6835 0 8.14657 0 5.59821C0 2.50637 2.4624 0 5.5 0C8.53646 0 11 2.50637 11 5.59821C11 8.14657 7.64844 12.6835 6.17891 14.5554C5.82656 15.0015 5.17344 15.0015 4.82109 14.5554ZM5.5 7.46429C6.5112 7.46429 7.33333 6.62747 7.33333 5.59821C7.33333 4.56896 6.5112 3.73214 5.5 3.73214C4.4888 3.73214 3.66667 4.56896 3.66667 5.59821C3.66667 6.62747 4.4888 7.46429 5.5 7.46429Z" fill="white"/>
</g>
<defs>
<clipPath id="clip0_2501_2335">
<rect width="10.5" height="14.25" fill="white" transform="scale(1.04762)"/>
</clipPath>
</defs>
</svg>
