<svg width="18" height="18" viewBox="0 0 18 18" fill="none" xmlns="http://www.w3.org/2000/svg">
<g clip-path="url(#clip0_244_3144)">
<path d="M8.10195 15.8938C6.67461 14.1069 3.5 9.77627 3.5 7.34375C3.5 4.39244 5.85047 2 8.75 2C11.6484 2 14 4.39244 14 7.34375C14 9.77627 10.8008 14.1069 9.39805 15.8938C9.06172 16.3196 8.43828 16.3196 8.10195 15.8938ZM8.75 9.125C9.71523 9.125 10.5 8.32622 10.5 7.34375C10.5 6.36128 9.71523 5.5625 8.75 5.5625C7.78477 5.5625 7 6.36128 7 7.34375C7 8.32622 7.78477 9.125 8.75 9.125Z" fill="white"/>
</g>
<defs>
<clipPath id="clip0_244_3144">
<rect width="10.5" height="14.25" fill="white" transform="translate(3.5 2)"/>
</clipPath>
</defs>
</svg>
