<svg width="18" height="18" viewBox="0 0 18 18" fill="none" xmlns="http://www.w3.org/2000/svg">
<path d="M11.6669 10.911L11.3256 11.271C11.3256 11.271 10.5134 12.1253 8.29714 9.79204C6.08089 7.45879 6.89314 6.60454 6.89314 6.60454L7.10839 6.37729C7.63789 5.81929 7.68814 4.92379 7.22539 4.26979L6.28039 2.93254C5.70739 2.12254 4.60114 2.01604 3.94489 2.70679L2.76814 3.94504C2.44339 4.28779 2.22589 4.73104 2.25214 5.22379C2.31964 6.48379 2.85814 9.19354 5.86114 12.3563C9.04639 15.7088 12.0351 15.8423 13.2569 15.7215C13.6439 15.684 13.9799 15.4748 14.2506 15.1898L15.3156 14.0678C16.0356 13.3103 15.8331 12.0128 14.9121 11.4833L13.4796 10.6583C12.8751 10.311 12.1394 10.413 11.6669 10.9103" fill="white"/>
</svg>
