<svg width="32" height="32" viewBox="0 0 32 32" fill="none" xmlns="http://www.w3.org/2000/svg">
<path fill-rule="evenodd" clip-rule="evenodd" d="M5.97721 5.05724C7.59987 3.44391 10.2719 3.73057 11.6305 5.54657L13.3132 7.79191C14.4199 9.26924 14.3212 11.3332 13.0079 12.6386L12.6905 12.9559C12.6546 13.0891 12.6509 13.229 12.6799 13.3639C12.7639 13.9079 13.2185 15.0599 15.1225 16.9532C17.0265 18.8466 18.1865 19.2999 18.7385 19.3852C18.8776 19.4132 19.0213 19.4091 19.1585 19.3732L19.7025 18.8319C20.8705 17.6719 22.6625 17.4546 24.1079 18.2399L26.6545 19.6266C28.8372 20.8106 29.3879 23.7759 27.6012 25.5532L25.7065 27.4359C25.1092 28.0292 24.3065 28.5239 23.3279 28.6159C20.9145 28.8412 15.2919 28.5532 9.38121 22.6772C3.86521 17.1919 2.80654 12.4079 2.67187 10.0506C2.60521 8.85857 3.16787 7.85057 3.88521 7.13857L5.97721 5.05724ZM10.0305 6.74524C9.35454 5.84257 8.09587 5.77057 7.38654 6.47591L5.29321 8.55591C4.85321 8.99324 4.64254 9.47591 4.66921 9.93724C4.77587 11.8106 5.62921 16.1266 10.7919 21.2599C16.2079 26.6439 21.2092 26.8052 23.1425 26.6239C23.5372 26.5879 23.9292 26.3826 24.2959 26.0186L26.1892 24.1346C26.9599 23.3692 26.7905 21.9746 25.6999 21.3826L23.1532 19.9972C22.4492 19.6159 21.6252 19.7412 21.1132 20.2506L20.5065 20.8546L19.7999 20.1452C20.5065 20.8546 20.5052 20.8559 20.5039 20.8559L20.5025 20.8586L20.4985 20.8626L20.4892 20.8706L20.4692 20.8892C20.4129 20.9415 20.3523 20.9888 20.2879 21.0306C20.1812 21.1012 20.0399 21.1799 19.8625 21.2452C19.5025 21.3799 19.0252 21.4519 18.4359 21.3612C17.2799 21.1839 15.7479 20.3959 13.7119 18.3719C11.6772 16.3479 10.8825 14.8252 10.7039 13.6706C10.6119 13.0812 10.6852 12.6039 10.8212 12.2439C10.8961 12.0413 11.0032 11.8522 11.1385 11.6839L11.1812 11.6372L11.1999 11.6172L11.2079 11.6092L11.2119 11.6052L11.2145 11.6026L11.5985 11.2212C12.1692 10.6519 12.2492 9.70924 11.7119 8.99057L10.0305 6.74524Z" fill="#00478E"/>
</svg>
