<svg width="18" height="18" viewBox="0 0 18 18" fill="none" xmlns="http://www.w3.org/2000/svg">
<path d="M11.667 10.911L11.3258 11.271C11.3258 11.271 10.5135 12.1253 8.29726 9.79204C6.08101 7.45879 6.89326 6.60454 6.89326 6.60454L7.10851 6.37729C7.63801 5.81929 7.68826 4.92379 7.22551 4.26979L6.28051 2.93254C5.70751 2.12254 4.60126 2.01604 3.94501 2.70679L2.76826 3.94504C2.44351 4.28779 2.22601 4.73104 2.25226 5.22379C2.31976 6.48379 2.85826 9.19354 5.86126 12.3563C9.04651 15.7088 12.0353 15.8423 13.257 15.7215C13.644 15.684 13.98 15.4748 14.2508 15.1898L15.3158 14.0678C16.0358 13.3103 15.8333 12.0128 14.9123 11.4833L13.4798 10.6583C12.8753 10.311 12.1395 10.413 11.667 10.9103" fill="white"/>
</svg>
