<svg width="29" height="29" viewBox="0 0 29 29" fill="none" xmlns="http://www.w3.org/2000/svg">
<path d="M28.0469 21.2063L28.8406 19.2907C29.0555 18.7654 29.0533 18.1762 28.8344 17.6525C28.6155 17.1289 28.1978 16.7134 27.6729 16.4974L26.6197 16.0623C26.5007 16.0156 26.4 15.9316 26.3326 15.823C26.2652 15.7143 26.2347 15.5868 26.2457 15.4594C26.2991 14.8042 26.2991 14.1456 26.2457 13.4904C26.1807 12.843 27.1562 12.7319 27.6653 12.4601C27.9256 12.3528 28.1621 12.195 28.3612 11.9959C28.5603 11.7968 28.718 11.5603 28.8253 11.3C29.3805 10.2479 28.3678 8.71857 28.0316 7.75108C27.812 7.22751 27.3944 6.81187 26.8699 6.59462C26.3453 6.37737 25.7562 6.3761 25.2307 6.59107L24.1774 7.03372C24.0557 7.08265 23.9216 7.09202 23.7942 7.06052C23.6668 7.02902 23.5526 6.95823 23.4677 6.85819C23.0545 6.36993 22.6027 5.91564 22.1168 5.4997C22.0149 5.41787 21.9421 5.30539 21.9091 5.17893C21.8761 5.05247 21.8847 4.91874 21.9336 4.79756L22.3687 3.74434C22.4762 3.48479 22.5314 3.20659 22.5313 2.92566C22.5312 2.64473 22.4756 2.36658 22.3679 2.10713C22.2601 1.84768 22.1023 1.61203 21.9034 1.41365C21.7044 1.21528 21.4684 1.05807 21.2086 0.951042L19.293 0.157317C18.7675 -0.0555412 18.1792 -0.0522766 17.6561 0.166401C17.133 0.385079 16.7174 0.801477 16.4997 1.32501L16.0647 2.37822C16.0171 2.49663 15.9329 2.59676 15.8245 2.66403C15.716 2.73129 15.589 2.76218 15.4617 2.75219C14.8065 2.69876 14.1479 2.69876 13.4927 2.75219C12.8455 2.81729 12.7342 1.84175 12.4624 1.33264C12.2433 0.808608 11.8258 0.392513 11.3011 0.175175C10.7763 -0.0421625 10.1869 -0.0430954 9.66143 0.172581L7.75344 0.966306C7.23034 1.1865 6.81516 1.60408 6.59799 2.12845C6.38083 2.65282 6.37919 3.24167 6.59344 3.76724L7.03604 4.82045C7.08496 4.94221 7.09434 5.07628 7.06283 5.20367C7.03133 5.33106 6.96054 5.4453 6.8605 5.53023C6.3703 5.94408 5.91586 6.39852 5.50201 6.88872C5.41839 6.98821 5.30548 7.05875 5.17939 7.09027C5.0533 7.1218 4.92048 7.11269 4.79987 7.06425L3.74666 6.62923C3.22224 6.4145 2.63416 6.41597 2.11082 6.63331C1.58747 6.85066 1.17137 7.26622 0.953356 7.78929L0.159631 9.70491C-0.0553299 10.2302 -0.0531088 10.8194 0.165807 11.343C0.384723 11.8667 0.80245 12.2822 1.32732 12.4982L2.38054 12.9332C2.49952 12.98 2.6002 13.064 2.66759 13.1726C2.73498 13.2813 2.76546 13.4088 2.7545 13.5362C2.70107 14.1914 2.70107 14.8499 2.7545 15.5052C2.81987 16.1521 1.84366 16.2639 1.33495 16.5355C1.07463 16.6428 0.838113 16.8006 0.639017 16.9996C0.439922 17.1987 0.282185 17.4353 0.174895 17.6956C-0.380247 18.7472 0.632363 20.2773 0.96862 21.2445C1.18769 21.7685 1.60517 22.1846 2.12993 22.402C2.65469 22.6193 3.24412 22.6202 3.76955 22.4045L4.82277 21.9619C4.94425 21.9111 5.07884 21.9008 5.20665 21.9324C5.33446 21.964 5.44872 22.0359 5.53254 22.1374C5.94574 22.6256 6.39748 23.0799 6.8834 23.4959C6.9853 23.5777 7.05815 23.6902 7.09114 23.8167C7.12413 23.9431 7.11551 24.0768 7.06657 24.198L6.63154 25.2512C6.52404 25.5108 6.46877 25.789 6.46891 26.0699C6.46904 26.3509 6.52457 26.629 6.63232 26.8885C6.74007 27.1479 6.89792 27.3836 7.09684 27.5819C7.29577 27.7803 7.53186 27.9375 7.7916 28.0445C8.76333 28.3813 10.2943 29.3892 11.3481 28.8306C12.2664 28.5382 12.611 27.4196 12.9355 26.6174C12.9831 26.499 13.0673 26.3989 13.1757 26.3316C13.2841 26.2643 13.4112 26.2335 13.5384 26.2434C14.1937 26.2969 14.8522 26.2969 15.5075 26.2434C16.1565 26.1781 16.2658 27.1578 16.5378 27.6706C16.7589 28.1928 17.1771 28.6066 17.7015 28.8224C18.2259 29.0381 18.8142 29.0384 19.3387 28.823L21.2467 28.0293C21.7699 27.8091 22.1851 27.3916 22.4023 26.8672C22.6194 26.3428 22.6211 25.7539 22.4068 25.2283L21.9642 24.1751C21.9152 24.0534 21.9059 23.9193 21.9374 23.7919C21.9689 23.6645 22.0397 23.5503 22.1397 23.4654C22.6299 23.0515 23.0843 22.5971 23.4982 22.1069C23.5818 22.0074 23.6947 21.9368 23.8208 21.9053C23.9469 21.8738 24.0797 21.8829 24.2003 21.9313L25.2536 22.3664C25.7779 22.582 26.3663 22.5809 26.8899 22.3635C27.4135 22.146 27.8295 21.7299 28.0469 21.2063ZM14.5001 23.4272C12.1328 23.4242 9.86335 22.4824 8.18942 20.8085C6.51549 19.1345 5.57374 16.8651 5.5707 14.4978C6.06274 2.65197 22.9393 2.65543 23.4295 14.4979C23.4264 16.8651 22.4847 19.1346 20.8108 20.8085C19.1368 22.4824 16.8674 23.4242 14.5001 23.4272Z" fill="#43ADE3"/>
</svg>
