<svg width="42" height="41" viewBox="0 0 42 41" fill="none" xmlns="http://www.w3.org/2000/svg">
<path d="M26.1663 0.342712C30.3229 0.340839 36.0435 0.345313 40.2017 0.342712C40.4811 0.34295 40.7496 0.454392 40.9472 0.651941C41.1445 0.849398 41.2551 1.11728 41.2554 1.39645V15.4398C41.2552 15.719 41.1445 15.9868 40.9472 16.1843C40.7496 16.3818 40.4811 16.4933 40.2017 16.4935H35.6184V18.8541C35.6184 19.4997 35.3619 20.119 34.9054 20.5755C34.4489 21.032 33.8295 21.2885 33.184 21.2885C32.5386 21.2884 31.9199 21.0318 31.4635 20.5755C31.007 20.119 30.7505 19.4997 30.7505 18.8541V16.4935H26.1663C25.8859 16.4935 25.6166 16.382 25.4178 16.1843C25.244 16.0112 25.1367 15.7841 25.1115 15.5422L25.1056 15.4378V10.8565H22.745C22.0985 10.8565 21.4779 10.5996 21.0207 10.1425C20.5634 9.68529 20.3067 9.06471 20.3067 8.41811C20.3067 7.77166 20.5636 7.15186 21.0207 6.6947C21.4779 6.23749 22.0984 5.98072 22.745 5.98072H25.1056V1.39842C25.1072 1.11814 25.2191 0.84965 25.4178 0.651941C25.6166 0.454232 25.8859 0.342746 26.1663 0.342712Z" stroke="#4CACAB" stroke-width="0.679534"/>
<path d="M1.84223 22.3936C1.84223 22.3936 6.14076 22.4323 6.16226 22.4304C6.36111 22.4799 6.53747 22.5951 6.66282 22.7572C6.78817 22.9193 6.85521 23.119 6.85309 23.3239V26.6952C6.85734 27.0665 6.99648 27.4235 7.24458 27.6998C7.49268 27.976 7.83279 28.1526 8.20147 28.1966C8.57016 28.2405 8.94226 28.1489 9.24836 27.9387C9.55447 27.7286 9.77369 27.4143 9.86514 27.0544C9.93107 26.8845 9.89307 24.4748 9.90198 24.2358C9.90342 23.7477 10.098 23.2799 10.4431 22.9348C10.7883 22.5896 11.2561 22.3951 11.7442 22.3936H14.9128C15.4014 22.3936 15.87 22.1995 16.2155 21.8541C16.561 21.5086 16.7551 21.04 16.7551 20.5514V19.2342C16.7551 18.7456 16.561 18.277 16.2155 17.9315C15.87 17.586 15.4014 17.3919 14.9128 17.3919H14.2957C11.2287 17.3449 9.73833 13.7385 12.083 11.2538C12.6925 10.4449 14.0421 10.6657 14.9129 10.6402C15.4015 10.6401 15.8701 10.446 16.2156 10.1006C16.561 9.75507 16.7551 9.2865 16.7551 8.79792V7.48073C16.7551 6.99214 16.561 6.52356 16.2155 6.17807C15.87 5.83259 15.4015 5.6385 14.9129 5.6385H1.84223C1.35364 5.6385 0.885062 5.83259 0.539577 6.17807C0.194092 6.52356 0 6.99214 0 7.48073V20.5513C0 21.0399 0.194092 21.5085 0.539577 21.854C0.885062 22.1995 1.35364 22.3936 1.84223 22.3936Z" fill="#4CACAB"/>
<path d="M33.5194 24.2449H32.2022C31.7136 24.2449 31.2451 24.439 30.8996 24.7845C30.5541 25.13 30.36 25.5985 30.36 26.0871C30.4376 26.5753 30.4084 27.0744 30.2744 27.5502C30.1404 28.026 29.9049 28.467 29.584 28.843C29.2631 29.2189 28.8645 29.5208 28.4156 29.7277C27.9668 29.9347 27.4784 30.0419 26.9841 30.0419C26.4898 30.0419 26.0014 29.9347 25.5526 29.7277C25.1038 29.5208 24.7052 29.2189 24.3843 28.843C24.0634 28.467 23.8278 28.026 23.6938 27.5502C23.5598 27.0744 23.5306 26.5753 23.6082 26.0871C23.6082 25.8452 23.5606 25.6057 23.468 25.3821C23.3754 25.1586 23.2397 24.9555 23.0687 24.7845C22.8976 24.6134 22.6945 24.4777 22.471 24.3851C22.2475 24.2926 22.008 24.2449 21.766 24.2449H20.4488C19.9602 24.2449 19.4916 24.439 19.1461 24.7845C18.8007 25.13 18.6066 25.5985 18.6066 26.0871V30.1677C18.6042 30.4128 18.5052 30.6471 18.331 30.8196C18.1568 30.9922 17.9215 31.0889 17.6763 31.0888C17.559 31.1017 13.8954 31.0496 13.9458 31.1348C13.6128 31.2185 13.3172 31.4105 13.1054 31.6806C12.8936 31.9508 12.7777 32.2838 12.7759 32.627C12.7731 32.9798 12.8942 33.3224 13.118 33.5951C13.3419 33.8678 13.6543 34.0533 14.0009 34.1193C14.0967 34.1565 16.5864 34.1491 16.7643 34.1469C17.2529 34.1469 17.7215 34.341 18.067 34.6865C18.4124 35.032 18.6065 35.5005 18.6065 35.9891V39.1577C18.6065 39.6463 18.8006 40.1149 19.1461 40.4604C19.4916 40.8059 19.9602 41 20.4487 41H33.5194C34.008 41 34.4766 40.8059 34.8221 40.4604C35.1676 40.1149 35.3616 39.6463 35.3616 39.1577V26.0871C35.3616 25.5985 35.1676 25.13 34.8221 24.7845C34.4766 24.439 34.008 24.2449 33.5194 24.2449Z" fill="#4CACAB"/>
<path d="M14.9128 35.9983C14.2773 36.0969 13.6268 36.0148 13.0356 35.7615C12.4445 35.5081 11.9365 35.0936 11.5696 34.5654C11.2027 34.0371 10.9917 33.4163 10.9607 32.7739C10.9297 32.1315 11.0799 31.4933 11.3942 30.9321C11.6318 30.5175 11.9552 30.1583 12.3428 29.8787C12.7304 29.5991 13.1732 29.4056 13.6417 29.311C14.0625 29.2496 14.488 29.2281 14.9128 29.2466C15.4014 29.2466 15.87 29.0525 16.2155 28.707C16.561 28.3615 16.7551 27.8929 16.7551 27.4043V26.0871C16.7551 25.5986 16.561 25.13 16.2155 24.7845C15.87 24.439 15.4014 24.2449 14.9128 24.2449H13.5957C13.1071 24.2449 12.6385 24.439 12.293 24.7845C11.9475 25.13 11.7534 25.5986 11.7534 26.0871C11.8314 26.5749 11.8025 27.0737 11.669 27.5492C11.5354 28.0247 11.3002 28.4655 10.9797 28.8413C10.6592 29.2171 10.261 29.5189 9.81251 29.7258C9.36404 29.9328 8.87601 30.0399 8.3821 30.0399C7.88819 30.0399 7.40017 29.9327 6.9517 29.7258C6.50324 29.5189 6.10501 29.2171 5.78451 28.8413C5.46401 28.4655 5.22886 28.0246 5.09529 27.5491C4.96172 27.0736 4.93292 26.5748 5.01086 26.0871C5.01085 25.5985 4.81675 25.1299 4.47126 24.7845C4.12578 24.439 3.65721 24.2449 3.16863 24.2449H1.84223C1.35364 24.2449 0.885062 24.439 0.539577 24.7845C0.194092 25.13 0 25.5985 0 26.0871V39.1578C0 39.6463 0.194092 40.1149 0.539577 40.4604C0.885062 40.8059 1.35364 41 1.84223 41H14.9128C15.4014 41 15.87 40.8059 16.2155 40.4604C16.561 40.1149 16.7551 39.6463 16.7551 39.1578V37.8406C16.7551 37.352 16.561 36.8834 16.2155 36.5379C15.87 36.1924 15.4014 35.9983 14.9128 35.9983Z" fill="#4CACAB"/>
</svg>
