<svg width="218" height="40" viewBox="0 0 218 40" fill="none" xmlns="http://www.w3.org/2000/svg">
<rect width="40" height="40" rx="20" fill="white"/>
<path d="M14.9399 13C14.9397 13.5305 14.7287 14.0391 14.3534 14.4139C13.9782 14.7888 13.4694 14.9993 12.9389 14.999C12.4085 14.9988 11.8999 14.7878 11.525 14.4125C11.1501 14.0373 10.9397 13.5285 10.9399 12.998C10.9402 12.4676 11.1512 11.959 11.5264 11.5841C11.9017 11.2092 12.4105 10.9988 12.9409 10.999C13.4714 10.9993 13.98 11.2103 14.3549 11.5855C14.7297 11.9608 14.9402 12.4696 14.9399 13ZM14.9999 16.48H10.9999V29H14.9999V16.48ZM21.3199 16.48H17.3399V29H21.2799V22.43C21.2799 18.77 26.0499 18.43 26.0499 22.43V29H29.9999V21.07C29.9999 14.9 22.9399 15.13 21.2799 18.16L21.3199 16.48Z" fill="#00478E"/>
<rect x="59.2002" width="40" height="40" rx="20" fill="white"/>
<path d="M86.1875 8.75H90.0229L81.6458 18.28L91.5 31.25H83.7865L77.7406 23.3856L70.8302 31.25H66.9885L75.9469 21.0542L66.5 8.75H74.4094L79.8687 15.9382L86.1875 8.75ZM84.8406 28.9673H86.9646L73.2521 10.9134H70.9708L84.8406 28.9673Z" fill="#00478E"/>
<rect x="118.4" width="40" height="40" rx="20" fill="white"/>
<path d="M143.02 7.5H132.933C130.962 7.50232 129.072 8.28643 127.678 9.6803C126.285 11.0742 125.501 12.9639 125.499 14.935V25.0225C125.501 26.9936 126.285 28.8832 127.679 30.2768C129.073 31.6705 130.963 32.4543 132.934 32.4562H143.022C144.993 32.4539 146.882 31.6698 148.276 30.276C149.669 28.8821 150.453 26.9923 150.455 25.0212V14.9338C150.453 12.9627 149.669 11.073 148.275 9.67941C146.881 8.28578 144.991 7.50198 143.02 7.5V7.5ZM147.945 25.0212C147.945 25.668 147.818 26.3084 147.57 26.906C147.323 27.5035 146.96 28.0464 146.503 28.5038C146.045 28.9611 145.503 29.3239 144.905 29.5714C144.307 29.8189 143.667 29.9463 143.02 29.9463H132.933C131.627 29.9459 130.374 29.4269 129.451 28.5033C128.528 27.5797 128.009 26.3272 128.009 25.0212V14.9338C128.009 13.6278 128.528 12.3754 129.452 11.4521C130.376 10.5287 131.628 10.01 132.934 10.01H143.022C144.327 10.0103 145.58 10.5294 146.503 11.4529C147.427 12.3765 147.945 13.629 147.945 14.935V25.0225V25.0212Z" fill="#00478E"/>
<path d="M137.977 13.5239C136.266 13.5266 134.626 14.2074 133.417 15.4172C132.207 16.627 131.527 18.267 131.524 19.9777C131.526 21.6888 132.207 23.3293 133.417 24.5394C134.627 25.7495 136.267 26.4304 137.978 26.4327C139.69 26.4307 141.33 25.75 142.54 24.5399C143.75 23.3297 144.431 21.689 144.433 19.9777C144.431 18.2665 143.749 16.6263 142.539 15.4167C141.329 14.2071 139.688 13.5268 137.977 13.5252V13.5239ZM137.977 23.9227C136.931 23.9227 135.928 23.5072 135.188 22.7676C134.449 22.028 134.033 21.0249 134.033 19.9789C134.033 18.933 134.449 17.9299 135.188 17.1903C135.928 16.4507 136.931 16.0352 137.977 16.0352C139.023 16.0352 140.026 16.4507 140.766 17.1903C141.505 17.9299 141.921 18.933 141.921 19.9789C141.921 21.0249 141.505 22.028 140.766 22.7676C140.026 23.5072 139.023 23.9227 137.977 23.9227Z" fill="#00478E"/>
<path d="M144.445 15.1189C145.299 15.1189 145.991 14.4266 145.991 13.5726C145.991 12.7186 145.299 12.0264 144.445 12.0264C143.591 12.0264 142.899 12.7186 142.899 13.5726C142.899 14.4266 143.591 15.1189 144.445 15.1189Z" fill="#00478E"/>
<rect x="177.6" width="40" height="40" rx="20" fill="white"/>
<path fill-rule="evenodd" clip-rule="evenodd" d="M201.124 12.1875C199.915 12.1875 198.936 13.1669 198.936 14.375V17.5725C198.936 17.705 199.043 17.8125 199.176 17.8125H203.972C204.118 17.8125 204.23 17.9419 204.209 18.0864L203.653 21.9814C203.636 22.0997 203.535 22.1875 203.415 22.1875H199.176C199.043 22.1875 198.936 22.295 198.936 22.4275V32.26C198.936 32.3926 198.829 32.5 198.696 32.5H194.801C194.668 32.5 194.561 32.3926 194.561 32.26V22.4275C194.561 22.295 194.454 22.1875 194.321 22.1875H190.739C190.606 22.1875 190.499 22.08 190.499 21.9475V18.0525C190.499 17.92 190.606 17.8125 190.739 17.8125H194.321C194.454 17.8125 194.561 17.705 194.561 17.5725V14.375C194.561 10.7506 197.499 7.8125 201.124 7.8125H204.634C204.766 7.8125 204.874 7.91995 204.874 8.0525V11.9475C204.874 12.08 204.766 12.1875 204.634 12.1875H201.124Z" fill="#00478E"/>
</svg>
